<svg width="27" height="28" viewBox="0 0 27 28" fill="none" xmlns="http://www.w3.org/2000/svg">
<path d="M11.8751 23.9958C12.3344 23.9852 12.7752 23.8125 13.1195 23.5082C13.4637 23.204 13.6893 22.7878 13.7563 22.3333H9.9209C9.98979 22.8001 10.2259 23.2261 10.5854 23.5319C10.9449 23.8377 11.4032 24.0026 11.8751 23.9958V23.9958Z" fill="white"/>
<path d="M22.703 19.5114L22.4551 19.2926C21.7518 18.666 21.1362 17.9474 20.6249 17.1562C20.0665 16.0643 19.7319 14.8719 19.6405 13.6489V10.0468C19.6376 9.60926 19.5986 9.17271 19.5239 8.74158C18.2888 8.48772 17.1793 7.81483 16.3834 6.83684C15.5874 5.85886 15.1539 4.63586 15.1562 3.37492V2.91554C14.3949 2.54089 13.5769 2.29452 12.7353 2.18638V1.26763C12.7353 1.00946 12.6328 0.761858 12.4502 0.579303C12.2677 0.396748 12.0201 0.294189 11.7619 0.294189C11.5037 0.294189 11.2561 0.396748 11.0736 0.579303C10.891 0.761858 10.7885 1.00946 10.7885 1.26763V2.22284C8.90409 2.48866 7.1795 3.42723 5.9331 4.86529C4.6867 6.30334 4.00264 8.14377 4.00721 10.0468V13.6489C3.91589 14.8719 3.58121 16.0643 3.02284 17.1562C2.52035 17.9454 1.91464 18.6639 1.22179 19.2926L0.973877 19.5114V21.5676H22.703V19.5114Z" fill="white"/>
</svg>
