<svg width="16" height="16" viewBox="0 0 16 16" fill="none" xmlns="http://www.w3.org/2000/svg">
  <path d="M8 1V1.77778V1ZM8 14.2222V15V14.2222ZM15 8H14.2222H15ZM1.77778 8H1H1.77778ZM12.9498 12.9498L12.3999 12.3999L12.9498 12.9498ZM3.60011 3.60011L3.05022 3.05022L3.60011 3.60011ZM12.9498 3.05022L12.3999 3.60011L12.9498 3.05022ZM3.60011 12.3999L3.05022 12.9498L3.60011 12.3999ZM11.1111 8C11.1111 8.82512 10.7833 9.61644 10.1999 10.1999C9.61644 10.7833 8.82512 11.1111 8 11.1111C7.17488 11.1111 6.38356 10.7833 5.80011 10.1999C5.21667 9.61644 4.88889 8.82512 4.88889 8C4.88889 7.17488 5.21667 6.38356 5.80011 5.80011C6.38356 5.21667 7.17488 4.88889 8 4.88889C8.82512 4.88889 9.61644 5.21667 10.1999 5.80011C10.7833 6.38356 11.1111 7.17488 11.1111 8V8Z" stroke="white" stroke-width="1.5" stroke-linecap="round" stroke-linejoin="round"/>
</svg>
