<svg width="11" height="11" viewBox="0 0 11 11" fill="none" xmlns="http://www.w3.org/2000/svg">
  <path d="M10.9979 5.50107C11.0147 5.6281 10.8942 5.72387 10.8942 5.72387L6.53161 10.6436C6.4136 10.766 6.27505 10.8605 6.12403 10.9213C5.97301 10.9822 5.81263 11.0082 5.65252 10.9978C5.49242 10.9874 5.33583 10.9408 5.192 10.8608C5.04817 10.7808 4.92006 10.6691 4.8153 10.5322C4.61965 10.2659 4.51961 9.92657 4.53497 9.58122C4.55034 9.23588 4.67999 8.90956 4.89828 8.66674L6.54258 6.80145H1.18691C1.0327 6.80654 0.879095 6.77661 0.735303 6.71358C0.591512 6.65055 0.460473 6.55566 0.3498 6.43446C0.239127 6.31325 0.151148 6.16826 0.0910686 6.00803C0.0309892 5.84779 0 5.67558 0 5.50161C0 5.32764 0.0309892 5.15543 0.0910686 4.9952C0.151148 4.83496 0.239127 4.68997 0.3498 4.56876C0.460473 4.44756 0.591512 4.35254 0.735303 4.28951C0.879095 4.22647 1.0327 4.19668 1.18691 4.20177H6.54258L4.89828 2.33635C4.67999 2.09353 4.55034 1.76734 4.53497 1.422C4.51961 1.07665 4.61965 0.737305 4.8153 0.47106C4.91971 0.333736 5.0475 0.221431 5.19115 0.140932C5.3348 0.0604321 5.49132 0.0133748 5.65144 0.00245987C5.81156 -0.00845503 5.9721 0.0170089 6.12331 0.0774087C6.27451 0.137809 6.41329 0.23194 6.53161 0.35408L10.8942 5.27364C10.9231 5.29782 10.9475 5.32837 10.9656 5.36341C10.9838 5.39846 10.9955 5.43739 11 5.47767L10.9979 5.50107Z" fill="white"/>
</svg>
