<svg width="12" height="12" viewBox="0 0 12 12" fill="none" xmlns="http://www.w3.org/2000/svg">
  <path d="M9.762 7.36058H9.766C10.088 7.36058 10.4035 7.33108 10.709 7.27458L10.6775 7.27958C10.1045 9.34058 8.2445 10.8286 6.037 10.8286H6.008H6.0095C3.338 10.8256 1.173 8.66058 1.1705 5.98908V5.98858C1.17677 4.93751 1.52222 3.91656 2.15547 3.07764C2.78871 2.23872 3.67589 1.62667 4.685 1.33258L4.7195 1.32408C4.66485 1.62415 4.63774 1.92858 4.6385 2.23358V2.23708C4.641 5.06608 6.9335 7.35858 9.762 7.36108H9.7625L9.762 7.36058ZM6.003 0.235081C5.94344 0.154712 5.86414 0.091081 5.77278 0.0503488C5.68142 0.00961659 5.58109 -0.00683699 5.4815 0.002581H5.484C2.4065 0.298081 0.017 2.86208 0 5.98808V5.98958C0.004 9.30708 2.6925 11.9956 6.0095 12.0001H6.04C9.1615 12.0001 11.7235 9.60708 11.9925 6.55558L11.994 6.53308C12.0026 6.43811 11.9878 6.34248 11.951 6.25454C11.9141 6.16659 11.8563 6.08902 11.7825 6.02858L11.7815 6.02758C11.707 5.96632 11.6185 5.92452 11.5239 5.90594C11.4293 5.88735 11.3316 5.89255 11.2395 5.92108L11.2435 5.92008L10.9815 5.99808C10.5886 6.12692 10.1775 6.19192 9.764 6.19058H9.7605C8.71286 6.18939 7.70847 5.77269 6.96768 5.0319C6.22689 4.29111 5.81019 3.28672 5.809 2.23908V2.23008C5.809 1.71508 5.908 1.22308 6.088 0.772581L6.0785 0.799081C6.11527 0.705855 6.12746 0.604741 6.11389 0.505448C6.10032 0.406154 6.06144 0.312019 6.001 0.232081L6.002 0.233581L6.003 0.235081Z" fill="white"/>
</svg>
